{"title":"Revolution Z - Sex luji i muzika (S02E07)","uid":8381697,"size":972474368,"categoryP":"video","categoryS":"tv_shows","magnet":"?xt=urn:btih:e577852b05042ff19dbfa8bd1e3f4ef4996ca461&amp;dn=Revolution+Z+-+Sex+luji+i+muzika+%28S02E07%29&amp;tr=udp%3A%2F%2Ftracker.openbittorrent.com%3A80&amp;tr=udp%3A%2F%2Fopen.demonii.com%3A1337&amp;tr=udp%3A%2F%2Ftracker.coppersurfer.tk%3A6969&amp;tr=udp%3A%2F%2Fexodus.desync.com%3A6969","seeders":1,"leechers":0,"uploader":null,"files":1,"time":1366189216,"description":"Revolution Z Sex, Lies and Music.S02E07.WEB.Rip.AVI.FREEPLAY.avi\n   \nGeneral\n     \n Complete name : Revolution Z Sex, Lies and Music.S02E07.WEB.Rip.AVI.FREEPLAY.avi\n     \n Format : AVI\n      Format/Info : Audio Video Interleave\n      File size : 927 MiB\n      Duration : 49mn 12s\n      Overall bit rate : 2 635 Kbps\n   Video #0\n      ID : 0\n      Format : MPEG-4 Visual\n      Format profile : Simple@L3\n      Format settings, BVOP : No\n      Format settings, QPel : No\n      Format settings, GMC : No warppoints\n      Format settings, Matrix : Default (H.263)\n      Codec ID : XVID\n      Codec ID/Hint : XviD\n      Duration : 49mn 12s\n      Bit rate : 2 493 Kbps\n      Width : 1 280 pixels\n      Height : 720 pixels\n      Display aspect ratio : 16:9\n      Frame rate : 30.000 fps\n      Resolution : 24 bits\n      Colorimetry : 4:2:0\n      Scan type : Progressive\n      Bits/(Pixel*Frame) : 0.090\n      Stream size : 877 MiB (95%)\n      Writing library : XviD 1.2.1 (UTC 2008-12-04)\n   Audio #1\n      ID : 1\n      Format : MPEG Audio\n      Format version : Version 1\n      Format profile : Layer 3\n      Codec ID : 55\n      Codec ID/Hint : MP3\n      Duration : 49mn 12s\n      Bit rate mode : Constant\n      Bit rate : 128 Kbps\n      Channel(s) : 2 channels\n      Sampling rate : 48.0 KHz\n      Resolution : 16 bits\n      Stream size : 45.1 MiB (5%)\n      Alignment : Aligned on interleaves\n      Interleave, duration : 24 ms (0.72 video frame)\n      Writing library : LAME3.98.2","torrent":{"xt":"urn:btih:e577852b05042ff19dbfa8bd1e3f4ef4996ca461","amp;dn":"Revolution+Z+-+Sex+luji+i+muzika+%28S02E07%29","amp;tr":["udp%3A%2F%2Ftracker.openbittorrent.com%3A80","udp%3A%2F%2Fopen.demonii.com%3A1337","udp%3A%2F%2Ftracker.coppersurfer.tk%3A6969","udp%3A%2F%2Fexodus.desync.com%3A6969"],"infoHash":"e577852b05042ff19dbfa8bd1e3f4ef4996ca461","infoHashBuffer":{"type":"Buffer","data":[229,119,133,43,5,4,47,241,157,191,168,189,30,63,78,244,153,108,164,97]},"announce":[],"urlList":[]}}